<?xml version="1.0" standalone="no"?>
<!DOCTYPE svg PUBLIC "-//W3C//DTD SVG 20010904//EN"
 "http://www.w3.org/TR/2001/REC-SVG-20010904/DTD/svg10.dtd">
<svg version="1.0" xmlns="http://www.w3.org/2000/svg"
 width="700.000000pt" height="700.000000pt" viewBox="0 0 700.000000 700.000000"
 preserveAspectRatio="xMidYMid meet">
<metadata>
Created by potrace 1.11, written by Peter Selinger 2001-2013
</metadata>
<g transform="translate(0.000000,700.000000) scale(0.100000,-0.100000)"
fill="#000000" stroke="none">
<path d="M535 6985 c-235 -51 -420 -216 -501 -446 l-29 -84 -2 -2925 c-1
-1987 1 -2943 8 -2980 25 -130 102 -274 195 -361 84 -78 157 -121 279 -163
l60 -21 2935 -2 c2880 -2 2936 -2 3009 18 239 62 404 221 487 469 18 53 19
163 21 2990 2 2829 1 2938 -17 3006 -61 235 -216 401 -450 483 l-75 26 -2930
2 c-2388 1 -2941 -1 -2990 -12z"/>
</g>
</svg>
